<?xml version="1.0" encoding="UTF-8"?>
<svg id="Layer_1" xmlns="http://www.w3.org/2000/svg" version="1.1" viewBox="0 0 279 37">
  <defs>
    <style>
      .st0 {
        fill: #fff;
      }

      .st1 {
        fill-rule: evenodd;
      }

      .st1, .st2 {
        fill: #463cfa;
      }
    </style>
  </defs>
  <path class="st0" d="M14.43,28.92C4.94,28.92,0,22.33,0,14.43S4.94,0,14.8,0c8.14,0,13.59,5.01,14.16,10.9l.03.34h-4.94l-.03-.34c-.4-4.07-4.07-6.59-9.11-6.59-7.33,0-10.02,4.78-10.02,10.12s2.79,10.19,9.48,10.19c5.35,0,8.68-2.62,9.48-6.93h-11.77v-4h16.92v14.9h-3.26l-.61-4.94c-1.95,3.16-5.45,5.28-10.69,5.28Z"/>
  <path class="st0" d="M38.82,6.73v3.93c1.01-2.32,3.83-4.27,7.43-4.27,4.3,0,7.73,2.29,7.73,8.41v2.45h-4.71v-2.32c0-2.89-1.21-4.61-4.37-4.61-4.57,0-6.09,3.36-6.09,5.82v12.44h-4.57V6.73h4.57Z"/>
  <path class="st0" d="M85.4,6.73h4.57l5.04,18.43,5.28-18.43h6.83l5.28,18.36,5.04-18.36h4.54l-6.46,21.86h-6.15l-5.65-18.7-5.65,18.7h-6.19l-6.49-21.86Z"/>
  <path class="st0" d="M141.99,6.73v3.93h-7.84v10.32c0,2.76.47,3.67,2.39,3.67h5.45v3.93h-6.22c-4.84,0-6.09-2.42-6.09-6.79v-11.13h-6.56v-3.93h3.19c3.09,0,4-1.95,3.97-6.39h4.47c0,3.4-.64,5.95-2.22,6.39h9.45Z"/>
  <path class="st0" d="M151.04.34v10.29c1.68-2.56,4.34-4.24,8.17-4.24,5.41,0,8.98,3.63,8.98,9.62v12.58h-4.57v-11.97c0-4.07-1.98-6.29-5.95-6.29-5.55,0-6.59,4.27-6.59,6.56l-.03-.57v12.27h-4.54V.34h4.54Z"/>
  <path class="st0" d="M186.11,28.92c-9.48,0-13.76-3.56-13.76-10.16v-.34h4.88v.34c0,4.2,2.66,6.02,9.01,6.02,5.21,0,7.57-1.28,7.57-4.14-.03-2.76-1.78-3.53-6.36-4.27l-6.22-1.04c-4.61-.74-7.87-2.89-7.87-7.4,0-5.25,4.2-7.94,11.97-7.94,8.27,0,12.48,3.16,12.48,8.84v.34h-4.84v-.34c0-3.19-2.15-4.71-7.57-4.71-4.81,0-7.16,1.21-7.16,3.63,0,2.25,2.25,3.3,5.78,3.83l6.32,1.01c5.21.77,8.31,2.76,8.31,7.7,0,6.09-3.73,8.61-12.54,8.61Z"/>
  <path class="st0" d="M207.69,6.73v3.09c1.18-1.61,3.6-3.43,7.7-3.43,6.89,0,11.1,4.78,11.1,11.23v.07c0,6.52-4.34,11.23-11,11.23-4.1,0-6.62-1.85-7.8-3.43v11.17h-4.54V6.73h4.54ZM207.69,17.72c0,4,2.29,7.23,7.06,7.23s7.06-3.36,7.06-7.26v-.07c0-3.87-2.19-7.26-7.06-7.26s-7.06,3.23-7.06,7.23v.13Z"/>
  <path class="st0" d="M247.45,28.59v-3.9c-2.15,3.03-5.89,4.24-9.79,4.24-4.74,0-7.77-1.85-7.77-5.89,0-4.3,4-5.72,8.21-6.46l3.19-.57c3.63-.64,6.05-1.04,6.05-2.96,0-1.41-1.41-2.79-5.48-2.79-4.61,0-6.52,1.65-6.52,4.44v.61h-4.57v-.61c0-5.15,3.73-8.31,11-8.31,7.67,0,10.12,3.19,10.12,7.47v14.73h-4.44ZM234.43,22.7c0,1.88,1.38,2.62,4.27,2.62,4.37,0,8.11-2.22,8.64-6.02v-2.49c-.74,1.48-3.03,1.95-5.68,2.45l-2.92.54c-2.86.54-4.31,1.18-4.31,2.89Z"/>
  <path class="st0" d="M261.85,6.73v3.9c1.68-2.56,4.34-4.24,8.17-4.24,5.41,0,8.98,3.63,8.98,9.62v12.58h-4.57v-11.97c0-4.07-1.98-6.29-5.95-6.29-5.55,0-6.59,4.27-6.59,6.56l-.03-.57v12.27h-4.54V6.73h4.54Z"/>
  <path class="st2" d="M84.32,15.05c-8.74-.17-17.49.15-26.19.96-1.51.14-1.51,2.5,0,2.36,8.71-.82,17.45-1.14,26.19-.96,1.52.03,1.52-2.33,0-2.36Z"/>
  <path class="st1" d="M84.33,14.3h0c.59.01,1.08.26,1.41.65.32.38.46.85.46,1.3s-.14.92-.47,1.3c-.34.39-.84.62-1.43.61h0c-8.71-.18-17.42.14-26.1.96h0c-.59.06-1.11-.14-1.47-.53-.34-.37-.48-.85-.48-1.29,0-.88.58-1.91,1.81-2.03h0c8.73-.81,17.5-1.14,26.27-.96ZM58.13,16.01c8.7-.81,17.45-1.13,26.19-.96,1.52.03,1.52,2.39,0,2.36-8.74-.18-17.48.14-26.19.96-1.51.14-1.51-2.22,0-2.36Z"/>
  <path class="st2" d="M70.08,4.77c.37,8.03.71,16.06.84,24.09.02,1.52,2.39,1.52,2.36,0-.13-8.04-.46-16.07-.84-24.09-.07-1.51-2.44-1.52-2.36,0Z"/>
  <path class="st1" d="M73.28,28.86c.02,1.52-2.34,1.52-2.36,0-.13-8.03-.46-16.06-.84-24.09-.07-1.52,2.29-1.51,2.36,0,.37,8.02.7,16.05.84,24.09ZM69.33,4.8c-.03-.59.19-1.1.58-1.45.37-.33.85-.47,1.3-.47.88,0,1.92.6,1.98,1.85h0c.37,8.02.7,16.06.84,24.11h0c0,.59-.22,1.09-.61,1.43-.37.33-.85.47-1.3.47s-.92-.14-1.3-.46c-.39-.33-.64-.82-.65-1.41-.13-8.02-.46-16.04-.83-24.07Z"/>
  <path class="st2" d="M60.92,10.88c7.53,3.24,13.22,9.5,19.56,14.48,1.18.93,2.87-.73,1.67-1.67-6.49-5.09-12.33-11.53-20.03-14.85-1.38-.6-2.58,1.44-1.19,2.04h0Z"/>
  <path class="st1" d="M61.07,10.94s-.09-.04-.14-.06c0,0,0,0,0,0,0,0,0,0,0,0h0s0,0,0,0c0,0,0,0,0,0-.05-.02-.1-.05-.14-.07-1.16-.67,0-2.54,1.34-1.97,5.47,2.36,10.01,6.3,14.51,10.21,1.83,1.59,3.65,3.17,5.53,4.64,1.2.94-.49,2.6-1.67,1.67-1.82-1.43-3.58-2.96-5.35-4.5-4.36-3.79-8.76-7.6-14.06-9.92ZM80.02,25.94c.96.75,2.1.42,2.72-.19.31-.31.56-.75.57-1.26.02-.54-.23-1.03-.7-1.4-1.61-1.26-3.18-2.6-4.76-3.98-.25-.21-.49-.43-.74-.64-1.33-1.16-2.68-2.33-4.05-3.46-3.25-2.68-6.7-5.17-10.65-6.87-1.12-.49-2.14.13-2.58.88-.22.38-.35.87-.24,1.36.12.52.48.94,1.02,1.17h0c3.67,1.58,6.91,3.9,10.04,6.48,1.34,1.1,2.65,2.24,3.97,3.38.23.2.45.39.68.59,1.54,1.34,3.10,2.67,4.70,3.93"/>
  <path class="st2" d="M77.72,5.26c-1.3,4.38-4.72,7.82-7.71,11.13-3.01,3.33-6.17,6.52-9.33,9.71-1.07,1.08.6,2.76,1.67,1.67,3.32-3.35,6.64-6.7,9.79-10.21,3.15-3.51,6.5-7.08,7.86-11.67.43-1.46-1.84-2.09-2.28-.63h0Z"/>
  <path class="st1" d="M77.26,4.51c.19-.29.45-.51.76-.65.45-.21.94-.22,1.38-.1.43.12.85.38,1.13.8.29.43.37.98.2,1.54-1.35,4.54-4.56,8.11-7.55,11.43-.16.17-.31.35-.47.52-3.17,3.53-6.50,6.89-9.81,10.24,0,0,0,0,0,0l-.53-.53.53.53s0,0,0,0c-.42.42-.93.61-1.45.57-.50-.04-.93-.27-1.25-.59-.32-.32-.55-.75-.59-1.25-.04-.51.14-1.03.56-1.45,0,0,0,0,0,0l.53.53-.53-.53s0,0,0,0c3.16-3.19,6.31-6.37,9.31-9.68,0,0,0,0,0,0l.55.5-.55-.50c.28-.31.55-.61.83-.92,2.78-3.05,5.58-6.13,6.71-9.93l.16-.53h.10ZM77.73,5.26h0,0Z"/>
</svg>
